# xmcd CD database file
#
# Track frame offsets:
#	150
#	20583
#	35646
#	65839
#	84343
#	103665
#	137644
#	169276
#	206722
#	238452
#	271766
#	307016
#
# Disc length: 4275 seconds
#
# Revision: 7
# Processed by: cddbd v1.5.1PL2 Copyright (c) Steve Scherf et al.
# Submitted via: CDex 1.70beta2
#
DISCID=b210b10c
DTITLE=Jimmy Witherspoon - Lonesome Road Blues
DYEAR=1900
DGENRE=Blues
TTITLE0=Groove's Groove
TTITLE1=California Blues
TTITLE2=Wonderful World
TTITLE3=Misty
TTITLE4=Walking On A Tightrope
TTITLE5=Slow Blues In G
TTITLE6=Song For My Father
TTITLE7=My Friend
TTITLE8=Lonesome Road Blues
TTITLE9=On Say A Joy
TTITLE10=Danger Zone Is Everywhere
TTITLE11=The Time Has Come
EXTD=
EXTT0=
EXTT1=
EXTT2=
EXTT3=
EXTT4=
EXTT5=
EXTT6=
EXTT7=
EXTT8=
EXTT9=
EXTT10=
EXTT11=
PLAYORDER=
